<?xml version="1.0" encoding="UTF-8"?>
<!DOCTYPE svg PUBLIC "-//W3C//DTD SVG 1.1//EN" "http://www.w3.org/Graphics/SVG/1.1/DTD/svg11.dtd">
<svg version="1.2" width="65.66mm" height="54.83mm" viewBox="3032 2712 6566 5483" preserveAspectRatio="xMidYMid" fill-rule="evenodd" stroke-width="28.222" stroke-linejoin="round" xmlns="http://www.w3.org/2000/svg" xmlns:ooo="http://xml.openoffice.org/svg/export" xmlns:xlink="http://www.w3.org/1999/xlink" xmlns:presentation="http://sun.com/xmlns/staroffice/presentation" xmlns:smil="http://www.w3.org/2001/SMIL20/" xmlns:anim="urn:oasis:names:tc:opendocument:xmlns:animation:1.0" xml:space="preserve">
 <defs class="ClipPathGroup">
  <clipPath id="presentation_clip_path" clipPathUnits="userSpaceOnUse">
   <rect x="3032" y="2712" width="6566" height="5483"/>
  </clipPath>
 </defs>
 <defs class="TextShapeIndex">
  <g ooo:slide="id1" ooo:id-list="id3 id4 id5 id6 id7 id8 id9 id10 id11 id12 id13 id14 id15 id16 id17 id18 id19 id20 id21 id22 id23 id24 id25 id26 id27 id28 id29 id30 id31 id32 id33 id34 id35 id36 id37 id38 id39 id40 id41 id42 id43 id44 id45 id46 id47 id48 id49 id50 id51 id52 id53 id54 id55 id56 id57 id58 id59 id60 id61 id62 id63"/>
 </defs>
 <defs class="EmbeddedBulletChars">
  <g id="bullet-char-template(57356)" transform="scale(0.00048828125,-0.00048828125)">
   <path d="M 580,1141 L 1163,571 580,0 -4,571 580,1141 Z"/>
  </g>
  <g id="bullet-char-template(57354)" transform="scale(0.00048828125,-0.00048828125)">
   <path d="M 8,1128 L 1137,1128 1137,0 8,0 8,1128 Z"/>
  </g>
  <g id="bullet-char-template(10146)" transform="scale(0.00048828125,-0.00048828125)">
   <path d="M 174,0 L 602,739 174,1481 1456,739 174,0 Z M 1358,739 L 309,1346 659,739 1358,739 Z"/>
  </g>
  <g id="bullet-char-template(10132)" transform="scale(0.00048828125,-0.00048828125)">
   <path d="M 2015,739 L 1276,0 717,0 1260,543 174,543 174,936 1260,936 717,1481 1274,1481 2015,739 Z"/>
  </g>
  <g id="bullet-char-template(10007)" transform="scale(0.00048828125,-0.00048828125)">
   <path d="M 0,-2 C -7,14 -16,27 -25,37 L 356,567 C 262,823 215,952 215,954 215,979 228,992 255,992 264,992 276,990 289,987 310,991 331,999 354,1012 L 381,999 492,748 772,1049 836,1024 860,1049 C 881,1039 901,1025 922,1006 886,937 835,863 770,784 769,783 710,716 594,584 L 774,223 C 774,196 753,168 711,139 L 727,119 C 717,90 699,76 672,76 641,76 570,178 457,381 L 164,-76 C 142,-110 111,-127 72,-127 30,-127 9,-110 8,-76 1,-67 -2,-52 -2,-32 -2,-23 -1,-13 0,-2 Z"/>
  </g>
  <g id="bullet-char-template(10004)" transform="scale(0.00048828125,-0.00048828125)">
   <path d="M 285,-33 C 182,-33 111,30 74,156 52,228 41,333 41,471 41,549 55,616 82,672 116,743 169,778 240,778 293,778 328,747 346,684 L 369,508 C 377,444 397,411 428,410 L 1163,1116 C 1174,1127 1196,1133 1229,1133 1271,1133 1292,1118 1292,1087 L 1292,965 C 1292,929 1282,901 1262,881 L 442,47 C 390,-6 338,-33 285,-33 Z"/>
  </g>
  <g id="bullet-char-template(9679)" transform="scale(0.00048828125,-0.00048828125)">
   <path d="M 813,0 C 632,0 489,54 383,161 276,268 223,411 223,592 223,773 276,916 383,1023 489,1130 632,1184 813,1184 992,1184 1136,1130 1245,1023 1353,916 1407,772 1407,592 1407,412 1353,268 1245,161 1136,54 992,0 813,0 Z"/>
  </g>
  <g id="bullet-char-template(8226)" transform="scale(0.00048828125,-0.00048828125)">
   <path d="M 346,457 C 273,457 209,483 155,535 101,586 74,649 74,723 74,796 101,859 155,911 209,963 273,989 346,989 419,989 480,963 531,910 582,859 608,796 608,723 608,648 583,586 532,535 482,483 420,457 346,457 Z"/>
  </g>
  <g id="bullet-char-template(8211)" transform="scale(0.00048828125,-0.00048828125)">
   <path d="M -4,459 L 1135,459 1135,606 -4,606 -4,459 Z"/>
  </g>
 </defs>
 <defs class="TextEmbeddedBitmaps"/>
 <g class="SlideGroup">
  <g>
   <g id="id1" class="Slide" clip-path="url(#presentation_clip_path)">
    <g class="Page">
     <g class="com.sun.star.drawing.CustomShape">
      <g id="id3">
       <rect class="BoundingBox" stroke="none" fill="none" x="3031" y="2711" width="6568" height="5485"/>
       <path fill="rgb(238,238,238)" fill-opacity="0.149" stroke="rgb(255,255,255)" stroke-opacity="0.149" d="M 6315,8177 L 3049,8177 3049,2729 9580,2729 9580,8177 6315,8177 Z"/>
       <path fill="none" stroke="rgb(221,221,221)" stroke-width="35" stroke-linejoin="round" d="M 6315,8177 L 3049,8177 3049,2729 9580,2729 9580,8177 6315,8177 Z"/>
      </g>
     </g>
     <g class="Group">
      <g class="com.sun.star.drawing.CustomShape">
       <g id="id4">
        <rect class="BoundingBox" stroke="none" fill="none" x="3211" y="2891" width="363" height="363"/>
        <path fill="rgb(0,204,0)" fill-opacity="0.231" stroke="rgb(255,255,255)" stroke-opacity="0.231" d="M 3391,2918 C 3478,2918 3545,2984 3545,3071 3545,3158 3478,3225 3391,3225 3304,3225 3238,3158 3238,3071 3238,2984 3304,2918 3391,2918 Z M 3238,2918 L 3238,2918 Z M 3546,3226 L 3546,3226 Z"/>
        <path fill="none" stroke="rgb(0,204,0)" stroke-width="53" stroke-linejoin="round" d="M 3391,2918 C 3478,2918 3545,2984 3545,3071 3545,3158 3478,3225 3391,3225 3304,3225 3238,3158 3238,3071 3238,2984 3304,2918 3391,2918 Z"/>
       </g>
      </g>
      <g class="com.sun.star.drawing.CustomShape">
       <g id="id5">
        <rect class="BoundingBox" stroke="none" fill="none" x="8927" y="3167" width="352" height="352"/>
        <path fill="rgb(153,153,153)" fill-opacity="0.231" stroke="rgb(255,255,255)" stroke-opacity="0.231" d="M 8954,3194 L 9251,3194 9102,3491 8954,3194 8954,3194 Z M 8954,3194 L 8954,3194 Z M 9251,3491 L 9251,3491 Z"/>
        <path fill="none" stroke="rgb(102,102,102)" stroke-width="53" stroke-linejoin="round" d="M 8954,3194 L 9251,3194 9102,3491 8954,3194 8954,3194 Z"/>
       </g>
      </g>
      <g class="com.sun.star.drawing.CustomShape">
       <g id="id6">
        <rect class="BoundingBox" stroke="none" fill="none" x="6048" y="3009" width="352" height="352"/>
        <path fill="rgb(153,153,153)" fill-opacity="0.231" stroke="rgb(255,255,255)" stroke-opacity="0.231" d="M 6075,3036 L 6372,3036 6223,3333 6075,3036 6075,3036 Z M 6075,3036 L 6075,3036 Z M 6372,3333 L 6372,3333 Z"/>
        <path fill="none" stroke="rgb(102,102,102)" stroke-width="53" stroke-linejoin="round" d="M 6075,3036 L 6372,3036 6223,3333 6075,3036 6075,3036 Z"/>
       </g>
      </g>
      <g class="com.sun.star.drawing.CustomShape">
       <g id="id7">
        <rect class="BoundingBox" stroke="none" fill="none" x="7161" y="3051" width="352" height="352"/>
        <path fill="rgb(153,153,153)" fill-opacity="0.231" stroke="rgb(255,255,255)" stroke-opacity="0.231" d="M 7188,3078 L 7485,3078 7336,3375 7188,3078 7188,3078 Z M 7188,3078 L 7188,3078 Z M 7485,3375 L 7485,3375 Z"/>
        <path fill="none" stroke="rgb(102,102,102)" stroke-width="53" stroke-linejoin="round" d="M 7188,3078 L 7485,3078 7336,3375 7188,3078 7188,3078 Z"/>
       </g>
      </g>
      <g class="com.sun.star.drawing.CustomShape">
       <g id="id8">
        <rect class="BoundingBox" stroke="none" fill="none" x="8939" y="4978" width="352" height="352"/>
        <path fill="rgb(153,153,153)" fill-opacity="0.231" stroke="rgb(255,255,255)" stroke-opacity="0.231" d="M 8966,5005 L 9263,5005 9114,5302 8966,5005 8966,5005 Z M 8966,5005 L 8966,5005 Z M 9263,5302 L 9263,5302 Z"/>
        <path fill="none" stroke="rgb(102,102,102)" stroke-width="53" stroke-linejoin="round" d="M 8966,5005 L 9263,5005 9114,5302 8966,5005 8966,5005 Z"/>
       </g>
      </g>
      <g class="com.sun.star.drawing.CustomShape">
       <g id="id9">
        <rect class="BoundingBox" stroke="none" fill="none" x="6850" y="3441" width="352" height="352"/>
        <path fill="rgb(153,153,153)" fill-opacity="0.231" stroke="rgb(255,255,255)" stroke-opacity="0.231" d="M 6877,3468 L 7174,3468 7025,3765 6877,3468 6877,3468 Z M 6877,3468 L 6877,3468 Z M 7174,3765 L 7174,3765 Z"/>
        <path fill="none" stroke="rgb(102,102,102)" stroke-width="53" stroke-linejoin="round" d="M 6877,3468 L 7174,3468 7025,3765 6877,3468 6877,3468 Z"/>
       </g>
      </g>
      <g class="com.sun.star.drawing.CustomShape">
       <g id="id10">
        <rect class="BoundingBox" stroke="none" fill="none" x="7902" y="3010" width="352" height="352"/>
        <path fill="rgb(153,153,153)" fill-opacity="0.231" stroke="rgb(255,255,255)" stroke-opacity="0.231" d="M 7929,3037 L 8226,3037 8077,3334 7929,3037 7929,3037 Z M 7929,3037 L 7929,3037 Z M 8226,3334 L 8226,3334 Z"/>
        <path fill="none" stroke="rgb(102,102,102)" stroke-width="53" stroke-linejoin="round" d="M 7929,3037 L 8226,3037 8077,3334 7929,3037 7929,3037 Z"/>
       </g>
      </g>
      <g class="com.sun.star.drawing.CustomShape">
       <g id="id11">
        <rect class="BoundingBox" stroke="none" fill="none" x="8083" y="3719" width="352" height="352"/>
        <path fill="rgb(153,153,153)" fill-opacity="0.231" stroke="rgb(255,255,255)" stroke-opacity="0.231" d="M 8110,3746 L 8407,3746 8258,4043 8110,3746 8110,3746 Z M 8110,3746 L 8110,3746 Z M 8407,4043 L 8407,4043 Z"/>
        <path fill="none" stroke="rgb(102,102,102)" stroke-width="53" stroke-linejoin="round" d="M 8110,3746 L 8407,3746 8258,4043 8110,3746 8110,3746 Z"/>
       </g>
      </g>
      <g class="com.sun.star.drawing.CustomShape">
       <g id="id12">
        <rect class="BoundingBox" stroke="none" fill="none" x="8560" y="4112" width="352" height="352"/>
        <path fill="rgb(153,153,153)" fill-opacity="0.231" stroke="rgb(255,255,255)" stroke-opacity="0.231" d="M 8587,4139 L 8884,4139 8735,4436 8587,4139 8587,4139 Z M 8587,4139 L 8587,4139 Z M 8884,4436 L 8884,4436 Z"/>
        <path fill="none" stroke="rgb(102,102,102)" stroke-width="53" stroke-linejoin="round" d="M 8587,4139 L 8884,4139 8735,4436 8587,4139 8587,4139 Z"/>
       </g>
      </g>
      <g class="com.sun.star.drawing.CustomShape">
       <g id="id13">
        <rect class="BoundingBox" stroke="none" fill="none" x="9016" y="3964" width="352" height="352"/>
        <path fill="rgb(153,153,153)" fill-opacity="0.231" stroke="rgb(255,255,255)" stroke-opacity="0.231" d="M 9043,3991 L 9340,3991 9191,4288 9043,3991 9043,3991 Z M 9043,3991 L 9043,3991 Z M 9340,4288 L 9340,4288 Z"/>
        <path fill="none" stroke="rgb(102,102,102)" stroke-width="53" stroke-linejoin="round" d="M 9043,3991 L 9340,3991 9191,4288 9043,3991 9043,3991 Z"/>
       </g>
      </g>
      <g class="com.sun.star.drawing.CustomShape">
       <g id="id14">
        <rect class="BoundingBox" stroke="none" fill="none" x="8007" y="4624" width="352" height="352"/>
        <path fill="rgb(153,153,153)" fill-opacity="0.231" stroke="rgb(255,255,255)" stroke-opacity="0.231" d="M 8034,4651 L 8331,4651 8182,4948 8034,4651 8034,4651 Z M 8034,4651 L 8034,4651 Z M 8331,4948 L 8331,4948 Z"/>
        <path fill="none" stroke="rgb(102,102,102)" stroke-width="53" stroke-linejoin="round" d="M 8034,4651 L 8331,4651 8182,4948 8034,4651 8034,4651 Z"/>
       </g>
      </g>
      <g class="com.sun.star.drawing.CustomShape">
       <g id="id15">
        <rect class="BoundingBox" stroke="none" fill="none" x="7231" y="5166" width="352" height="352"/>
        <path fill="rgb(153,153,153)" fill-opacity="0.231" stroke="rgb(255,255,255)" stroke-opacity="0.231" d="M 7258,5193 L 7555,5193 7406,5490 7258,5193 7258,5193 Z M 7258,5193 L 7258,5193 Z M 7555,5490 L 7555,5490 Z"/>
        <path fill="none" stroke="rgb(102,102,102)" stroke-width="53" stroke-linejoin="round" d="M 7258,5193 L 7555,5193 7406,5490 7258,5193 7258,5193 Z"/>
       </g>
      </g>
      <g class="com.sun.star.drawing.CustomShape">
       <g id="id16">
        <rect class="BoundingBox" stroke="none" fill="none" x="5846" y="5166" width="352" height="352"/>
        <path fill="rgb(153,153,153)" fill-opacity="0.231" stroke="rgb(255,255,255)" stroke-opacity="0.231" d="M 5873,5193 L 6170,5193 6021,5490 5873,5193 5873,5193 Z M 5873,5193 L 5873,5193 Z M 6170,5490 L 6170,5490 Z"/>
        <path fill="none" stroke="rgb(102,102,102)" stroke-width="53" stroke-linejoin="round" d="M 5873,5193 L 6170,5193 6021,5490 5873,5193 5873,5193 Z"/>
       </g>
      </g>
      <g class="com.sun.star.drawing.CustomShape">
       <g id="id17">
        <rect class="BoundingBox" stroke="none" fill="none" x="6065" y="4558" width="352" height="352"/>
        <path fill="rgb(153,153,153)" fill-opacity="0.231" stroke="rgb(255,255,255)" stroke-opacity="0.231" d="M 6092,4585 L 6389,4585 6240,4882 6092,4585 6092,4585 Z M 6092,4585 L 6092,4585 Z M 6389,4882 L 6389,4882 Z"/>
        <path fill="none" stroke="rgb(102,102,102)" stroke-width="53" stroke-linejoin="round" d="M 6092,4585 L 6389,4585 6240,4882 6092,4585 6092,4585 Z"/>
       </g>
      </g>
      <g class="com.sun.star.drawing.CustomShape">
       <g id="id18">
        <rect class="BoundingBox" stroke="none" fill="none" x="6553" y="4797" width="352" height="352"/>
        <path fill="rgb(153,153,153)" fill-opacity="0.231" stroke="rgb(255,255,255)" stroke-opacity="0.231" d="M 6580,4824 L 6877,4824 6728,5121 6580,4824 6580,4824 Z M 6580,4824 L 6580,4824 Z M 6877,5121 L 6877,5121 Z"/>
        <path fill="none" stroke="rgb(102,102,102)" stroke-width="53" stroke-linejoin="round" d="M 6580,4824 L 6877,4824 6728,5121 6580,4824 6580,4824 Z"/>
       </g>
      </g>
      <g class="com.sun.star.drawing.CustomShape">
       <g id="id19">
        <rect class="BoundingBox" stroke="none" fill="none" x="6676" y="5426" width="352" height="352"/>
        <path fill="rgb(153,153,153)" fill-opacity="0.231" stroke="rgb(255,255,255)" stroke-opacity="0.231" d="M 6703,5453 L 7000,5453 6851,5750 6703,5453 6703,5453 Z M 6703,5453 L 6703,5453 Z M 7000,5750 L 7000,5750 Z"/>
        <path fill="none" stroke="rgb(102,102,102)" stroke-width="53" stroke-linejoin="round" d="M 6703,5453 L 7000,5453 6851,5750 6703,5453 6703,5453 Z"/>
       </g>
      </g>
      <g class="com.sun.star.drawing.CustomShape">
       <g id="id20">
        <rect class="BoundingBox" stroke="none" fill="none" x="7928" y="6186" width="352" height="352"/>
        <path fill="rgb(153,153,153)" fill-opacity="0.231" stroke="rgb(255,255,255)" stroke-opacity="0.231" d="M 7955,6213 L 8252,6213 8103,6510 7955,6213 7955,6213 Z M 7955,6213 L 7955,6213 Z M 8252,6510 L 8252,6510 Z"/>
        <path fill="none" stroke="rgb(102,102,102)" stroke-width="53" stroke-linejoin="round" d="M 7955,6213 L 8252,6213 8103,6510 7955,6213 7955,6213 Z"/>
       </g>
      </g>
      <g class="com.sun.star.drawing.CustomShape">
       <g id="id21">
        <rect class="BoundingBox" stroke="none" fill="none" x="6897" y="6136" width="352" height="352"/>
        <path fill="rgb(153,153,153)" fill-opacity="0.231" stroke="rgb(255,255,255)" stroke-opacity="0.231" d="M 6924,6163 L 7221,6163 7072,6460 6924,6163 6924,6163 Z M 6924,6163 L 6924,6163 Z M 7221,6460 L 7221,6460 Z"/>
        <path fill="none" stroke="rgb(102,102,102)" stroke-width="53" stroke-linejoin="round" d="M 6924,6163 L 7221,6163 7072,6460 6924,6163 6924,6163 Z"/>
       </g>
      </g>
      <g class="com.sun.star.drawing.CustomShape">
       <g id="id22">
        <rect class="BoundingBox" stroke="none" fill="none" x="6742" y="6875" width="352" height="352"/>
        <path fill="rgb(153,153,153)" fill-opacity="0.231" stroke="rgb(255,255,255)" stroke-opacity="0.231" d="M 6769,6902 L 7066,6902 6917,7199 6769,6902 6769,6902 Z M 6769,6902 L 6769,6902 Z M 7066,7199 L 7066,7199 Z"/>
        <path fill="none" stroke="rgb(102,102,102)" stroke-width="53" stroke-linejoin="round" d="M 6769,6902 L 7066,6902 6917,7199 6769,6902 6769,6902 Z"/>
       </g>
      </g>
      <g class="com.sun.star.drawing.CustomShape">
       <g id="id23">
        <rect class="BoundingBox" stroke="none" fill="none" x="6119" y="7151" width="352" height="352"/>
        <path fill="rgb(153,153,153)" fill-opacity="0.231" stroke="rgb(255,255,255)" stroke-opacity="0.231" d="M 6146,7178 L 6443,7178 6294,7475 6146,7178 6146,7178 Z M 6146,7178 L 6146,7178 Z M 6443,7475 L 6443,7475 Z"/>
        <path fill="none" stroke="rgb(102,102,102)" stroke-width="53" stroke-linejoin="round" d="M 6146,7178 L 6443,7178 6294,7475 6146,7178 6146,7178 Z"/>
       </g>
      </g>
      <g class="com.sun.star.drawing.CustomShape">
       <g id="id24">
        <rect class="BoundingBox" stroke="none" fill="none" x="6834" y="7635" width="352" height="352"/>
        <path fill="rgb(153,153,153)" fill-opacity="0.231" stroke="rgb(255,255,255)" stroke-opacity="0.231" d="M 6861,7662 L 7158,7662 7009,7959 6861,7662 6861,7662 Z M 6861,7662 L 6861,7662 Z M 7158,7959 L 7158,7959 Z"/>
        <path fill="none" stroke="rgb(102,102,102)" stroke-width="53" stroke-linejoin="round" d="M 6861,7662 L 7158,7662 7009,7959 6861,7662 6861,7662 Z"/>
       </g>
      </g>
      <g class="com.sun.star.drawing.CustomShape">
       <g id="id25">
        <rect class="BoundingBox" stroke="none" fill="none" x="7830" y="7572" width="352" height="352"/>
        <path fill="rgb(153,153,153)" fill-opacity="0.231" stroke="rgb(255,255,255)" stroke-opacity="0.231" d="M 7857,7599 L 8154,7599 8005,7896 7857,7599 7857,7599 Z M 7857,7599 L 7857,7599 Z M 8154,7896 L 8154,7896 Z"/>
        <path fill="none" stroke="rgb(102,102,102)" stroke-width="53" stroke-linejoin="round" d="M 7857,7599 L 8154,7599 8005,7896 7857,7599 7857,7599 Z"/>
       </g>
      </g>
      <g class="com.sun.star.drawing.CustomShape">
       <g id="id26">
        <rect class="BoundingBox" stroke="none" fill="none" x="8469" y="6783" width="352" height="352"/>
        <path fill="rgb(153,153,153)" fill-opacity="0.231" stroke="rgb(255,255,255)" stroke-opacity="0.231" d="M 8496,6810 L 8793,6810 8644,7107 8496,6810 8496,6810 Z M 8496,6810 L 8496,6810 Z M 8793,7107 L 8793,7107 Z"/>
        <path fill="none" stroke="rgb(102,102,102)" stroke-width="53" stroke-linejoin="round" d="M 8496,6810 L 8793,6810 8644,7107 8496,6810 8496,6810 Z"/>
       </g>
      </g>
      <g class="com.sun.star.drawing.CustomShape">
       <g id="id27">
        <rect class="BoundingBox" stroke="none" fill="none" x="7558" y="6863" width="352" height="352"/>
        <path fill="rgb(153,153,153)" fill-opacity="0.231" stroke="rgb(255,255,255)" stroke-opacity="0.231" d="M 7585,6890 L 7882,6890 7733,7187 7585,6890 7585,6890 Z M 7585,6890 L 7585,6890 Z M 7882,7187 L 7882,7187 Z"/>
        <path fill="none" stroke="rgb(102,102,102)" stroke-width="53" stroke-linejoin="round" d="M 7585,6890 L 7882,6890 7733,7187 7585,6890 7585,6890 Z"/>
       </g>
      </g>
      <g class="com.sun.star.drawing.CustomShape">
       <g id="id28">
        <rect class="BoundingBox" stroke="none" fill="none" x="9005" y="7552" width="352" height="352"/>
        <path fill="rgb(153,153,153)" fill-opacity="0.231" stroke="rgb(255,255,255)" stroke-opacity="0.231" d="M 9032,7579 L 9329,7579 9180,7876 9032,7579 9032,7579 Z M 9032,7579 L 9032,7579 Z M 9329,7876 L 9329,7876 Z"/>
        <path fill="none" stroke="rgb(102,102,102)" stroke-width="53" stroke-linejoin="round" d="M 9032,7579 L 9329,7579 9180,7876 9032,7579 9032,7579 Z"/>
       </g>
      </g>
      <g class="com.sun.star.drawing.CustomShape">
       <g id="id29">
        <rect class="BoundingBox" stroke="none" fill="none" x="9069" y="6463" width="352" height="352"/>
        <path fill="rgb(153,153,153)" fill-opacity="0.231" stroke="rgb(255,255,255)" stroke-opacity="0.231" d="M 9096,6490 L 9393,6490 9244,6787 9096,6490 9096,6490 Z M 9096,6490 L 9096,6490 Z M 9393,6787 L 9393,6787 Z"/>
        <path fill="none" stroke="rgb(102,102,102)" stroke-width="53" stroke-linejoin="round" d="M 9096,6490 L 9393,6490 9244,6787 9096,6490 9096,6490 Z"/>
       </g>
      </g>
      <g class="com.sun.star.drawing.CustomShape">
       <g id="id30">
        <rect class="BoundingBox" stroke="none" fill="none" x="8806" y="5818" width="352" height="352"/>
        <path fill="rgb(153,153,153)" fill-opacity="0.231" stroke="rgb(255,255,255)" stroke-opacity="0.231" d="M 8833,5845 L 9130,5845 8981,6142 8833,5845 8833,5845 Z M 8833,5845 L 8833,5845 Z M 9130,6142 L 9130,6142 Z"/>
        <path fill="none" stroke="rgb(102,102,102)" stroke-width="53" stroke-linejoin="round" d="M 8833,5845 L 9130,5845 8981,6142 8833,5845 8833,5845 Z"/>
       </g>
      </g>
      <g class="com.sun.star.drawing.CustomShape">
       <g id="id31">
        <rect class="BoundingBox" stroke="none" fill="none" x="7673" y="5545" width="352" height="352"/>
        <path fill="rgb(153,153,153)" fill-opacity="0.231" stroke="rgb(255,255,255)" stroke-opacity="0.231" d="M 7700,5572 L 7997,5572 7848,5869 7700,5572 7700,5572 Z M 7700,5572 L 7700,5572 Z M 7997,5869 L 7997,5869 Z"/>
        <path fill="none" stroke="rgb(102,102,102)" stroke-width="53" stroke-linejoin="round" d="M 7700,5572 L 7997,5572 7848,5869 7700,5572 7700,5572 Z"/>
       </g>
      </g>
      <g class="com.sun.star.drawing.CustomShape">
       <g id="id32">
        <rect class="BoundingBox" stroke="none" fill="none" x="8194" y="5164" width="352" height="352"/>
        <path fill="rgb(153,153,153)" fill-opacity="0.231" stroke="rgb(255,255,255)" stroke-opacity="0.231" d="M 8221,5191 L 8518,5191 8369,5488 8221,5191 8221,5191 Z M 8221,5191 L 8221,5191 Z M 8518,5488 L 8518,5488 Z"/>
        <path fill="none" stroke="rgb(102,102,102)" stroke-width="53" stroke-linejoin="round" d="M 8221,5191 L 8518,5191 8369,5488 8221,5191 8221,5191 Z"/>
       </g>
      </g>
      <g class="com.sun.star.drawing.CustomShape">
       <g id="id33">
        <rect class="BoundingBox" stroke="none" fill="none" x="7509" y="3884" width="352" height="352"/>
        <path fill="rgb(153,153,153)" fill-opacity="0.231" stroke="rgb(255,255,255)" stroke-opacity="0.231" d="M 7536,3911 L 7833,3911 7684,4208 7536,3911 7536,3911 Z M 7536,3911 L 7536,3911 Z M 7833,4208 L 7833,4208 Z"/>
        <path fill="none" stroke="rgb(102,102,102)" stroke-width="53" stroke-linejoin="round" d="M 7536,3911 L 7833,3911 7684,4208 7536,3911 7536,3911 Z"/>
       </g>
      </g>
      <g class="com.sun.star.drawing.CustomShape">
       <g id="id34">
        <rect class="BoundingBox" stroke="none" fill="none" x="7166" y="4384" width="352" height="352"/>
        <path fill="rgb(153,153,153)" fill-opacity="0.231" stroke="rgb(255,255,255)" stroke-opacity="0.231" d="M 7193,4411 L 7490,4411 7341,4708 7193,4411 7193,4411 Z M 7193,4411 L 7193,4411 Z M 7490,4708 L 7490,4708 Z"/>
        <path fill="none" stroke="rgb(102,102,102)" stroke-width="53" stroke-linejoin="round" d="M 7193,4411 L 7490,4411 7341,4708 7193,4411 7193,4411 Z"/>
       </g>
      </g>
      <g class="com.sun.star.drawing.CustomShape">
       <g id="id35">
        <rect class="BoundingBox" stroke="none" fill="none" x="4216" y="2881" width="363" height="363"/>
        <path fill="rgb(0,204,0)" fill-opacity="0.231" stroke="rgb(255,255,255)" stroke-opacity="0.231" d="M 4396,2908 C 4483,2908 4550,2974 4550,3061 4550,3148 4483,3215 4396,3215 4309,3215 4243,3148 4243,3061 4243,2974 4309,2908 4396,2908 Z M 4243,2908 L 4243,2908 Z M 4551,3216 L 4551,3216 Z"/>
        <path fill="none" stroke="rgb(0,204,0)" stroke-width="53" stroke-linejoin="round" d="M 4396,2908 C 4483,2908 4550,2974 4550,3061 4550,3148 4483,3215 4396,3215 4309,3215 4243,3148 4243,3061 4243,2974 4309,2908 4396,2908 Z"/>
       </g>
      </g>
      <g class="com.sun.star.drawing.CustomShape">
       <g id="id36">
        <rect class="BoundingBox" stroke="none" fill="none" x="5116" y="3124" width="363" height="363"/>
        <path fill="rgb(0,204,0)" fill-opacity="0.231" stroke="rgb(255,255,255)" stroke-opacity="0.231" d="M 5296,3151 C 5383,3151 5450,3217 5450,3304 5450,3391 5383,3458 5296,3458 5209,3458 5143,3391 5143,3304 5143,3217 5209,3151 5296,3151 Z M 5143,3151 L 5143,3151 Z M 5451,3459 L 5451,3459 Z"/>
        <path fill="none" stroke="rgb(0,204,0)" stroke-width="53" stroke-linejoin="round" d="M 5296,3151 C 5383,3151 5450,3217 5450,3304 5450,3391 5383,3458 5296,3458 5209,3458 5143,3391 5143,3304 5143,3217 5209,3151 5296,3151 Z"/>
       </g>
      </g>
      <g class="com.sun.star.drawing.CustomShape">
       <g id="id37">
        <rect class="BoundingBox" stroke="none" fill="none" x="5623" y="3484" width="363" height="363"/>
        <path fill="rgb(0,204,0)" fill-opacity="0.231" stroke="rgb(255,255,255)" stroke-opacity="0.231" d="M 5803,3511 C 5890,3511 5957,3577 5957,3664 5957,3751 5890,3818 5803,3818 5716,3818 5650,3751 5650,3664 5650,3577 5716,3511 5803,3511 Z M 5650,3511 L 5650,3511 Z M 5958,3819 L 5958,3819 Z"/>
        <path fill="none" stroke="rgb(0,204,0)" stroke-width="53" stroke-linejoin="round" d="M 5803,3511 C 5890,3511 5957,3577 5957,3664 5957,3751 5890,3818 5803,3818 5716,3818 5650,3751 5650,3664 5650,3577 5716,3511 5803,3511 Z"/>
       </g>
      </g>
      <g class="com.sun.star.drawing.CustomShape">
       <g id="id38">
        <rect class="BoundingBox" stroke="none" fill="none" x="6269" y="3833" width="363" height="363"/>
        <path fill="rgb(0,204,0)" fill-opacity="0.231" stroke="rgb(255,255,255)" stroke-opacity="0.231" d="M 6449,3860 C 6536,3860 6603,3926 6603,4013 6603,4100 6536,4167 6449,4167 6362,4167 6296,4100 6296,4013 6296,3926 6362,3860 6449,3860 Z M 6296,3860 L 6296,3860 Z M 6604,4168 L 6604,4168 Z"/>
        <path fill="none" stroke="rgb(0,204,0)" stroke-width="53" stroke-linejoin="round" d="M 6449,3860 C 6536,3860 6603,3926 6603,4013 6603,4100 6536,4167 6449,4167 6362,4167 6296,4100 6296,4013 6296,3926 6362,3860 6449,3860 Z"/>
       </g>
      </g>
      <g class="com.sun.star.drawing.CustomShape">
       <g id="id39">
        <rect class="BoundingBox" stroke="none" fill="none" x="5383" y="4056" width="363" height="363"/>
        <path fill="rgb(0,204,0)" fill-opacity="0.231" stroke="rgb(255,255,255)" stroke-opacity="0.231" d="M 5563,4083 C 5650,4083 5717,4149 5717,4236 5717,4323 5650,4390 5563,4390 5476,4390 5410,4323 5410,4236 5410,4149 5476,4083 5563,4083 Z M 5410,4083 L 5410,4083 Z M 5718,4391 L 5718,4391 Z"/>
        <path fill="none" stroke="rgb(0,204,0)" stroke-width="53" stroke-linejoin="round" d="M 5563,4083 C 5650,4083 5717,4149 5717,4236 5717,4323 5650,4390 5563,4390 5476,4390 5410,4323 5410,4236 5410,4149 5476,4083 5563,4083 Z"/>
       </g>
      </g>
      <g class="com.sun.star.drawing.CustomShape">
       <g id="id40">
        <rect class="BoundingBox" stroke="none" fill="none" x="4141" y="3580" width="363" height="363"/>
        <path fill="rgb(0,204,0)" fill-opacity="0.231" stroke="rgb(255,255,255)" stroke-opacity="0.231" d="M 4321,3607 C 4408,3607 4475,3673 4475,3760 4475,3847 4408,3914 4321,3914 4234,3914 4168,3847 4168,3760 4168,3673 4234,3607 4321,3607 Z M 4168,3607 L 4168,3607 Z M 4476,3915 L 4476,3915 Z"/>
        <path fill="none" stroke="rgb(0,204,0)" stroke-width="53" stroke-linejoin="round" d="M 4321,3607 C 4408,3607 4475,3673 4475,3760 4475,3847 4408,3914 4321,3914 4234,3914 4168,3847 4168,3760 4168,3673 4234,3607 4321,3607 Z"/>
       </g>
      </g>
      <g class="com.sun.star.drawing.CustomShape">
       <g id="id41">
        <rect class="BoundingBox" stroke="none" fill="none" x="3451" y="3633" width="363" height="363"/>
        <path fill="rgb(0,204,0)" fill-opacity="0.231" stroke="rgb(255,255,255)" stroke-opacity="0.231" d="M 3631,3660 C 3718,3660 3785,3726 3785,3813 3785,3900 3718,3967 3631,3967 3544,3967 3478,3900 3478,3813 3478,3726 3544,3660 3631,3660 Z M 3478,3660 L 3478,3660 Z M 3786,3968 L 3786,3968 Z"/>
        <path fill="none" stroke="rgb(0,204,0)" stroke-width="53" stroke-linejoin="round" d="M 3631,3660 C 3718,3660 3785,3726 3785,3813 3785,3900 3718,3967 3631,3967 3544,3967 3478,3900 3478,3813 3478,3726 3544,3660 3631,3660 Z"/>
       </g>
      </g>
      <g class="com.sun.star.drawing.CustomShape">
       <g id="id42">
        <rect class="BoundingBox" stroke="none" fill="none" x="3252" y="4225" width="363" height="363"/>
        <path fill="rgb(0,204,0)" fill-opacity="0.231" stroke="rgb(255,255,255)" stroke-opacity="0.231" d="M 3432,4252 C 3519,4252 3586,4318 3586,4405 3586,4492 3519,4559 3432,4559 3345,4559 3279,4492 3279,4405 3279,4318 3345,4252 3432,4252 Z M 3279,4252 L 3279,4252 Z M 3587,4560 L 3587,4560 Z"/>
        <path fill="none" stroke="rgb(0,204,0)" stroke-width="53" stroke-linejoin="round" d="M 3432,4252 C 3519,4252 3586,4318 3586,4405 3586,4492 3519,4559 3432,4559 3345,4559 3279,4492 3279,4405 3279,4318 3345,4252 3432,4252 Z"/>
       </g>
      </g>
      <g class="com.sun.star.drawing.CustomShape">
       <g id="id43">
        <rect class="BoundingBox" stroke="none" fill="none" x="4078" y="4257" width="363" height="363"/>
        <path fill="rgb(0,204,0)" fill-opacity="0.231" stroke="rgb(255,255,255)" stroke-opacity="0.231" d="M 4258,4284 C 4345,4284 4412,4350 4412,4437 4412,4524 4345,4591 4258,4591 4171,4591 4105,4524 4105,4437 4105,4350 4171,4284 4258,4284 Z M 4105,4284 L 4105,4284 Z M 4413,4592 L 4413,4592 Z"/>
        <path fill="none" stroke="rgb(0,204,0)" stroke-width="53" stroke-linejoin="round" d="M 4258,4284 C 4345,4284 4412,4350 4412,4437 4412,4524 4345,4591 4258,4591 4171,4591 4105,4524 4105,4437 4105,4350 4171,4284 4258,4284 Z"/>
       </g>
      </g>
      <g class="com.sun.star.drawing.CustomShape">
       <g id="id44">
        <rect class="BoundingBox" stroke="none" fill="none" x="4848" y="3689" width="363" height="363"/>
        <path fill="rgb(0,204,0)" fill-opacity="0.231" stroke="rgb(255,255,255)" stroke-opacity="0.231" d="M 5028,3716 C 5115,3716 5182,3782 5182,3869 5182,3956 5115,4023 5028,4023 4941,4023 4875,3956 4875,3869 4875,3782 4941,3716 5028,3716 Z M 4875,3716 L 4875,3716 Z M 5183,4024 L 5183,4024 Z"/>
        <path fill="none" stroke="rgb(0,204,0)" stroke-width="53" stroke-linejoin="round" d="M 5028,3716 C 5115,3716 5182,3782 5182,3869 5182,3956 5115,4023 5028,4023 4941,4023 4875,3956 4875,3869 4875,3782 4941,3716 5028,3716 Z"/>
       </g>
      </g>
      <g class="com.sun.star.drawing.CustomShape">
       <g id="id45">
        <rect class="BoundingBox" stroke="none" fill="none" x="4639" y="4470" width="363" height="363"/>
        <path fill="rgb(0,204,0)" fill-opacity="0.231" stroke="rgb(255,255,255)" stroke-opacity="0.231" d="M 4819,4497 C 4906,4497 4973,4563 4973,4650 4973,4737 4906,4804 4819,4804 4732,4804 4666,4737 4666,4650 4666,4563 4732,4497 4819,4497 Z M 4666,4497 L 4666,4497 Z M 4974,4805 L 4974,4805 Z"/>
        <path fill="none" stroke="rgb(0,204,0)" stroke-width="53" stroke-linejoin="round" d="M 4819,4497 C 4906,4497 4973,4563 4973,4650 4973,4737 4906,4804 4819,4804 4732,4804 4666,4737 4666,4650 4666,4563 4732,4497 4819,4497 Z"/>
       </g>
      </g>
      <g class="com.sun.star.drawing.CustomShape">
       <g id="id46">
        <rect class="BoundingBox" stroke="none" fill="none" x="4987" y="4924" width="363" height="363"/>
        <path fill="rgb(0,204,0)" fill-opacity="0.231" stroke="rgb(255,255,255)" stroke-opacity="0.231" d="M 5167,4951 C 5254,4951 5321,5017 5321,5104 5321,5191 5254,5258 5167,5258 5080,5258 5014,5191 5014,5104 5014,5017 5080,4951 5167,4951 Z M 5014,4951 L 5014,4951 Z M 5322,5259 L 5322,5259 Z"/>
        <path fill="none" stroke="rgb(0,204,0)" stroke-width="53" stroke-linejoin="round" d="M 5167,4951 C 5254,4951 5321,5017 5321,5104 5321,5191 5254,5258 5167,5258 5080,5258 5014,5191 5014,5104 5014,5017 5080,4951 5167,4951 Z"/>
       </g>
      </g>
      <g class="com.sun.star.drawing.CustomShape">
       <g id="id47">
        <rect class="BoundingBox" stroke="none" fill="none" x="5167" y="5633" width="363" height="363"/>
        <path fill="rgb(0,204,0)" fill-opacity="0.231" stroke="rgb(255,255,255)" stroke-opacity="0.231" d="M 5347,5660 C 5434,5660 5501,5726 5501,5813 5501,5900 5434,5967 5347,5967 5260,5967 5194,5900 5194,5813 5194,5726 5260,5660 5347,5660 Z M 5194,5660 L 5194,5660 Z M 5502,5968 L 5502,5968 Z"/>
        <path fill="none" stroke="rgb(0,204,0)" stroke-width="53" stroke-linejoin="round" d="M 5347,5660 C 5434,5660 5501,5726 5501,5813 5501,5900 5434,5967 5347,5967 5260,5967 5194,5900 5194,5813 5194,5726 5260,5660 5347,5660 Z"/>
       </g>
      </g>
      <g class="com.sun.star.drawing.CustomShape">
       <g id="id48">
        <rect class="BoundingBox" stroke="none" fill="none" x="5922" y="6096" width="363" height="363"/>
        <path fill="rgb(0,204,0)" fill-opacity="0.231" stroke="rgb(255,255,255)" stroke-opacity="0.231" d="M 6102,6123 C 6189,6123 6256,6189 6256,6276 6256,6363 6189,6430 6102,6430 6015,6430 5949,6363 5949,6276 5949,6189 6015,6123 6102,6123 Z M 5949,6123 L 5949,6123 Z M 6257,6431 L 6257,6431 Z"/>
        <path fill="none" stroke="rgb(0,204,0)" stroke-width="53" stroke-linejoin="round" d="M 6102,6123 C 6189,6123 6256,6189 6256,6276 6256,6363 6189,6430 6102,6430 6015,6430 5949,6363 5949,6276 5949,6189 6015,6123 6102,6123 Z"/>
       </g>
      </g>
      <g class="com.sun.star.drawing.CustomShape">
       <g id="id49">
        <rect class="BoundingBox" stroke="none" fill="none" x="5279" y="6259" width="363" height="363"/>
        <path fill="rgb(0,204,0)" fill-opacity="0.231" stroke="rgb(255,255,255)" stroke-opacity="0.231" d="M 5459,6286 C 5546,6286 5613,6352 5613,6439 5613,6526 5546,6593 5459,6593 5372,6593 5306,6526 5306,6439 5306,6352 5372,6286 5459,6286 Z M 5306,6286 L 5306,6286 Z M 5614,6594 L 5614,6594 Z"/>
        <path fill="none" stroke="rgb(0,204,0)" stroke-width="53" stroke-linejoin="round" d="M 5459,6286 C 5546,6286 5613,6352 5613,6439 5613,6526 5546,6593 5459,6593 5372,6593 5306,6526 5306,6439 5306,6352 5372,6286 5459,6286 Z"/>
       </g>
      </g>
      <g class="com.sun.star.drawing.CustomShape">
       <g id="id50">
        <rect class="BoundingBox" stroke="none" fill="none" x="4965" y="6872" width="363" height="363"/>
        <path fill="rgb(0,204,0)" fill-opacity="0.231" stroke="rgb(255,255,255)" stroke-opacity="0.231" d="M 5145,6899 C 5232,6899 5299,6965 5299,7052 5299,7139 5232,7206 5145,7206 5058,7206 4992,7139 4992,7052 4992,6965 5058,6899 5145,6899 Z M 4992,6899 L 4992,6899 Z M 5300,7207 L 5300,7207 Z"/>
        <path fill="none" stroke="rgb(0,204,0)" stroke-width="53" stroke-linejoin="round" d="M 5145,6899 C 5232,6899 5299,6965 5299,7052 5299,7139 5232,7206 5145,7206 5058,7206 4992,7139 4992,7052 4992,6965 5058,6899 5145,6899 Z"/>
       </g>
      </g>
      <g class="com.sun.star.drawing.CustomShape">
       <g id="id51">
        <rect class="BoundingBox" stroke="none" fill="none" x="3431" y="5230" width="363" height="363"/>
        <path fill="rgb(0,204,0)" fill-opacity="0.231" stroke="rgb(255,255,255)" stroke-opacity="0.231" d="M 3611,5257 C 3698,5257 3765,5323 3765,5410 3765,5497 3698,5564 3611,5564 3524,5564 3458,5497 3458,5410 3458,5323 3524,5257 3611,5257 Z M 3458,5257 L 3458,5257 Z M 3766,5565 L 3766,5565 Z"/>
        <path fill="none" stroke="rgb(0,204,0)" stroke-width="53" stroke-linejoin="round" d="M 3611,5257 C 3698,5257 3765,5323 3765,5410 3765,5497 3698,5564 3611,5564 3524,5564 3458,5497 3458,5410 3458,5323 3524,5257 3611,5257 Z"/>
       </g>
      </g>
      <g class="com.sun.star.drawing.CustomShape">
       <g id="id52">
        <rect class="BoundingBox" stroke="none" fill="none" x="3623" y="5974" width="363" height="363"/>
        <path fill="rgb(0,204,0)" fill-opacity="0.231" stroke="rgb(255,255,255)" stroke-opacity="0.231" d="M 3803,6001 C 3890,6001 3957,6067 3957,6154 3957,6241 3890,6308 3803,6308 3716,6308 3650,6241 3650,6154 3650,6067 3716,6001 3803,6001 Z M 3650,6001 L 3650,6001 Z M 3958,6309 L 3958,6309 Z"/>
        <path fill="none" stroke="rgb(0,204,0)" stroke-width="53" stroke-linejoin="round" d="M 3803,6001 C 3890,6001 3957,6067 3957,6154 3957,6241 3890,6308 3803,6308 3716,6308 3650,6241 3650,6154 3650,6067 3716,6001 3803,6001 Z"/>
       </g>
      </g>
      <g class="com.sun.star.drawing.CustomShape">
       <g id="id53">
        <rect class="BoundingBox" stroke="none" fill="none" x="3229" y="6469" width="363" height="363"/>
        <path fill="rgb(0,204,0)" fill-opacity="0.231" stroke="rgb(255,255,255)" stroke-opacity="0.231" d="M 3409,6496 C 3496,6496 3563,6562 3563,6649 3563,6736 3496,6803 3409,6803 3322,6803 3256,6736 3256,6649 3256,6562 3322,6496 3409,6496 Z M 3256,6496 L 3256,6496 Z M 3564,6804 L 3564,6804 Z"/>
        <path fill="none" stroke="rgb(0,204,0)" stroke-width="53" stroke-linejoin="round" d="M 3409,6496 C 3496,6496 3563,6562 3563,6649 3563,6736 3496,6803 3409,6803 3322,6803 3256,6736 3256,6649 3256,6562 3322,6496 3409,6496 Z"/>
       </g>
      </g>
      <g class="com.sun.star.drawing.CustomShape">
       <g id="id54">
        <rect class="BoundingBox" stroke="none" fill="none" x="4492" y="5295" width="363" height="363"/>
        <path fill="rgb(0,204,0)" fill-opacity="0.231" stroke="rgb(255,255,255)" stroke-opacity="0.231" d="M 4672,5322 C 4759,5322 4826,5388 4826,5475 4826,5562 4759,5629 4672,5629 4585,5629 4519,5562 4519,5475 4519,5388 4585,5322 4672,5322 Z M 4519,5322 L 4519,5322 Z M 4827,5630 L 4827,5630 Z"/>
        <path fill="none" stroke="rgb(0,204,0)" stroke-width="53" stroke-linejoin="round" d="M 4672,5322 C 4759,5322 4826,5388 4826,5475 4826,5562 4759,5629 4672,5629 4585,5629 4519,5562 4519,5475 4519,5388 4585,5322 4672,5322 Z"/>
       </g>
      </g>
      <g class="com.sun.star.drawing.CustomShape">
       <g id="id55">
        <rect class="BoundingBox" stroke="none" fill="none" x="3896" y="4838" width="363" height="363"/>
        <path fill="rgb(0,204,0)" fill-opacity="0.231" stroke="rgb(255,255,255)" stroke-opacity="0.231" d="M 4076,4865 C 4163,4865 4230,4931 4230,5018 4230,5105 4163,5172 4076,5172 3989,5172 3923,5105 3923,5018 3923,4931 3989,4865 4076,4865 Z M 3923,4865 L 3923,4865 Z M 4231,5173 L 4231,5173 Z"/>
        <path fill="none" stroke="rgb(0,204,0)" stroke-width="53" stroke-linejoin="round" d="M 4076,4865 C 4163,4865 4230,4931 4230,5018 4230,5105 4163,5172 4076,5172 3989,5172 3923,5105 3923,5018 3923,4931 3989,4865 4076,4865 Z"/>
       </g>
      </g>
      <g class="com.sun.star.drawing.CustomShape">
       <g id="id56">
        <rect class="BoundingBox" stroke="none" fill="none" x="4203" y="5960" width="363" height="363"/>
        <path fill="rgb(0,204,0)" fill-opacity="0.231" stroke="rgb(255,255,255)" stroke-opacity="0.231" d="M 4383,5987 C 4470,5987 4537,6053 4537,6140 4537,6227 4470,6294 4383,6294 4296,6294 4230,6227 4230,6140 4230,6053 4296,5987 4383,5987 Z M 4230,5987 L 4230,5987 Z M 4538,6295 L 4538,6295 Z"/>
        <path fill="none" stroke="rgb(0,204,0)" stroke-width="53" stroke-linejoin="round" d="M 4383,5987 C 4470,5987 4537,6053 4537,6140 4537,6227 4470,6294 4383,6294 4296,6294 4230,6227 4230,6140 4230,6053 4296,5987 4383,5987 Z"/>
       </g>
      </g>
      <g class="com.sun.star.drawing.CustomShape">
       <g id="id57">
        <rect class="BoundingBox" stroke="none" fill="none" x="4729" y="6100" width="363" height="363"/>
        <path fill="rgb(0,204,0)" fill-opacity="0.231" stroke="rgb(255,255,255)" stroke-opacity="0.231" d="M 4909,6127 C 4996,6127 5063,6193 5063,6280 5063,6367 4996,6434 4909,6434 4822,6434 4756,6367 4756,6280 4756,6193 4822,6127 4909,6127 Z M 4756,6127 L 4756,6127 Z M 5064,6435 L 5064,6435 Z"/>
        <path fill="none" stroke="rgb(0,204,0)" stroke-width="53" stroke-linejoin="round" d="M 4909,6127 C 4996,6127 5063,6193 5063,6280 5063,6367 4996,6434 4909,6434 4822,6434 4756,6367 4756,6280 4756,6193 4822,6127 4909,6127 Z"/>
       </g>
      </g>
      <g class="com.sun.star.drawing.CustomShape">
       <g id="id58">
        <rect class="BoundingBox" stroke="none" fill="none" x="4280" y="6636" width="363" height="363"/>
        <path fill="rgb(0,204,0)" fill-opacity="0.231" stroke="rgb(255,255,255)" stroke-opacity="0.231" d="M 4460,6663 C 4547,6663 4614,6729 4614,6816 4614,6903 4547,6970 4460,6970 4373,6970 4307,6903 4307,6816 4307,6729 4373,6663 4460,6663 Z M 4307,6663 L 4307,6663 Z M 4615,6971 L 4615,6971 Z"/>
        <path fill="none" stroke="rgb(0,204,0)" stroke-width="53" stroke-linejoin="round" d="M 4460,6663 C 4547,6663 4614,6729 4614,6816 4614,6903 4547,6970 4460,6970 4373,6970 4307,6903 4307,6816 4307,6729 4373,6663 4460,6663 Z"/>
       </g>
      </g>
      <g class="com.sun.star.drawing.CustomShape">
       <g id="id59">
        <rect class="BoundingBox" stroke="none" fill="none" x="3727" y="7082" width="363" height="363"/>
        <path fill="rgb(0,204,0)" fill-opacity="0.231" stroke="rgb(255,255,255)" stroke-opacity="0.231" d="M 3907,7109 C 3994,7109 4061,7175 4061,7262 4061,7349 3994,7416 3907,7416 3820,7416 3754,7349 3754,7262 3754,7175 3820,7109 3907,7109 Z M 3754,7109 L 3754,7109 Z M 4062,7417 L 4062,7417 Z"/>
        <path fill="none" stroke="rgb(0,204,0)" stroke-width="53" stroke-linejoin="round" d="M 3907,7109 C 3994,7109 4061,7175 4061,7262 4061,7349 3994,7416 3907,7416 3820,7416 3754,7349 3754,7262 3754,7175 3820,7109 3907,7109 Z"/>
       </g>
      </g>
      <g class="com.sun.star.drawing.CustomShape">
       <g id="id60">
        <rect class="BoundingBox" stroke="none" fill="none" x="4563" y="7368" width="363" height="363"/>
        <path fill="rgb(0,204,0)" fill-opacity="0.231" stroke="rgb(255,255,255)" stroke-opacity="0.231" d="M 4743,7395 C 4830,7395 4897,7461 4897,7548 4897,7635 4830,7702 4743,7702 4656,7702 4590,7635 4590,7548 4590,7461 4656,7395 4743,7395 Z M 4590,7395 L 4590,7395 Z M 4898,7703 L 4898,7703 Z"/>
        <path fill="none" stroke="rgb(0,204,0)" stroke-width="53" stroke-linejoin="round" d="M 4743,7395 C 4830,7395 4897,7461 4897,7548 4897,7635 4830,7702 4743,7702 4656,7702 4590,7635 4590,7548 4590,7461 4656,7395 4743,7395 Z"/>
       </g>
      </g>
      <g class="com.sun.star.drawing.CustomShape">
       <g id="id61">
        <rect class="BoundingBox" stroke="none" fill="none" x="5357" y="7569" width="363" height="363"/>
        <path fill="rgb(0,204,0)" fill-opacity="0.231" stroke="rgb(255,255,255)" stroke-opacity="0.231" d="M 5537,7596 C 5624,7596 5691,7662 5691,7749 5691,7836 5624,7903 5537,7903 5450,7903 5384,7836 5384,7749 5384,7662 5450,7596 5537,7596 Z M 5384,7596 L 5384,7596 Z M 5692,7904 L 5692,7904 Z"/>
        <path fill="none" stroke="rgb(0,204,0)" stroke-width="53" stroke-linejoin="round" d="M 5537,7596 C 5624,7596 5691,7662 5691,7749 5691,7836 5624,7903 5537,7903 5450,7903 5384,7836 5384,7749 5384,7662 5450,7596 5537,7596 Z"/>
       </g>
      </g>
      <g class="com.sun.star.drawing.CustomShape">
       <g id="id62">
        <rect class="BoundingBox" stroke="none" fill="none" x="3335" y="7516" width="363" height="363"/>
        <path fill="rgb(0,204,0)" fill-opacity="0.231" stroke="rgb(255,255,255)" stroke-opacity="0.231" d="M 3515,7543 C 3602,7543 3669,7609 3669,7696 3669,7783 3602,7850 3515,7850 3428,7850 3362,7783 3362,7696 3362,7609 3428,7543 3515,7543 Z M 3362,7543 L 3362,7543 Z M 3670,7851 L 3670,7851 Z"/>
        <path fill="none" stroke="rgb(0,204,0)" stroke-width="53" stroke-linejoin="round" d="M 3515,7543 C 3602,7543 3669,7609 3669,7696 3669,7783 3602,7850 3515,7850 3428,7850 3362,7783 3362,7696 3362,7609 3428,7543 3515,7543 Z"/>
       </g>
      </g>
      <g class="com.sun.star.drawing.OpenBezierShape">
       <g id="id63">
        <rect class="BoundingBox" stroke="none" fill="none" x="5528" y="2934" width="1370" height="5092"/>
        <path fill="none" stroke="rgb(0,0,0)" stroke-width="53" stroke-linejoin="round" stroke-linecap="round" d="M 5800,2961 C 5809,3064 5779,3170 5832,3269 5891,3379 6002,3454 6118,3504 6226,3550 6345,3578 6446,3637 6556,3701 6677,3726 6774,3821 6862,3907 6904,4044 6837,4129 6758,4228 6652,4328 6509,4343 6395,4355 6280,4337 6170,4354 6057,4371 5910,4353 5842,4457 5769,4567 5602,4634 5620,4774 5636,4901 5518,4970 5567,5091 5608,5194 5565,5317 5641,5408 5721,5504 5732,5647 5864,5705 5972,5753 6076,5811 6192,5849 6312,5888 6430,5944 6520,6043 6599,6131 6615,6250 6583,6351 6543,6476 6423,6579 6297,6617 6188,6649 6075,6672 5969,6709 5856,6748 5705,6763 5662,6903 5630,7007 5636,7116 5673,7211 5724,7341 5872,7408 5980,7497 6080,7579 6159,7690 6202,7814 L 6234,7917 6234,7998"/>
       </g>
      </g>
     </g>
    </g>
   </g>
  </g>
 </g>
</svg>